<mxfile host="app.diagrams.net" modified="2023-05-18T10:22:16.389Z" agent="Mozilla/5.0 (Windows NT 10.0; Win64; x64; rv:109.0) Gecko/20100101 Firefox/113.0" etag="5-mjbj0dsoRe_LnlA8TN" version="21.3.2">
  <diagram name="Page-1" id="qr0LnexmCtOtnuwFvqrx">
    <mxGraphModel dx="2045" dy="652" grid="1" gridSize="10" guides="1" tooltips="1" connect="1" arrows="1" fold="1" page="1" pageScale="1" pageWidth="850" pageHeight="1100" math="0" shadow="0">
      <root>
        <mxCell id="0" />
        <mxCell id="1" parent="0" />
        <mxCell id="fl3CMTGi6qAs-wpmnRKZ-17" value="" style="rounded=0;whiteSpace=wrap;html=1;" vertex="1" parent="1">
          <mxGeometry x="-640" y="330" width="90" height="72.5" as="geometry" />
        </mxCell>
        <mxCell id="fl3CMTGi6qAs-wpmnRKZ-3" value="" style="rounded=0;whiteSpace=wrap;html=1;" vertex="1" parent="1">
          <mxGeometry x="-795" y="177.5" width="90" height="72.5" as="geometry" />
        </mxCell>
        <mxCell id="fl3CMTGi6qAs-wpmnRKZ-2" value="" style="points=[[0.13,0.02,0],[0.5,0,0],[0.87,0.02,0],[0.885,0.4,0],[0.985,0.985,0],[0.5,1,0],[0.015,0.985,0],[0.115,0.4,0]];verticalLabelPosition=bottom;sketch=0;html=1;verticalAlign=top;aspect=fixed;align=center;pointerEvents=1;shape=mxgraph.cisco19.laptop;fillColor=#005073;strokeColor=none;" vertex="1" parent="1">
          <mxGeometry x="-775" y="184" width="50" height="35" as="geometry" />
        </mxCell>
        <mxCell id="fl3CMTGi6qAs-wpmnRKZ-7" value="" style="rounded=0;whiteSpace=wrap;html=1;" vertex="1" parent="1">
          <mxGeometry x="-795" y="270" width="90" height="72.5" as="geometry" />
        </mxCell>
        <mxCell id="fl3CMTGi6qAs-wpmnRKZ-9" value="" style="rounded=0;whiteSpace=wrap;html=1;" vertex="1" parent="1">
          <mxGeometry x="-795" y="360" width="90" height="72.5" as="geometry" />
        </mxCell>
        <mxCell id="fl3CMTGi6qAs-wpmnRKZ-11" value="" style="image;html=1;image=img/lib/clip_art/networking/Firewall-page1_128x128.png" vertex="1" parent="1">
          <mxGeometry x="-767.5" y="266" width="35" height="53.75" as="geometry" />
        </mxCell>
        <mxCell id="fl3CMTGi6qAs-wpmnRKZ-12" value="" style="image;aspect=fixed;perimeter=ellipsePerimeter;html=1;align=center;shadow=0;dashed=0;spacingTop=3;image=img/lib/active_directory/generic_server.svg;" vertex="1" parent="1">
          <mxGeometry x="-764" y="360" width="28.000000000000004" height="50" as="geometry" />
        </mxCell>
        <mxCell id="fl3CMTGi6qAs-wpmnRKZ-27" style="edgeStyle=orthogonalEdgeStyle;rounded=0;orthogonalLoop=1;jettySize=auto;html=1;entryX=0.5;entryY=1;entryDx=0;entryDy=0;exitX=1;exitY=0.5;exitDx=0;exitDy=0;" edge="1" parent="1" source="fl3CMTGi6qAs-wpmnRKZ-13" target="fl3CMTGi6qAs-wpmnRKZ-18">
          <mxGeometry relative="1" as="geometry" />
        </mxCell>
        <mxCell id="fl3CMTGi6qAs-wpmnRKZ-13" value="Promtail" style="rounded=1;whiteSpace=wrap;html=1;fillColor=#f0a30a;strokeColor=#BD7000;fontColor=#000000;" vertex="1" parent="1">
          <mxGeometry x="-630" y="356.25" width="70" height="20" as="geometry" />
        </mxCell>
        <mxCell id="fl3CMTGi6qAs-wpmnRKZ-29" style="edgeStyle=orthogonalEdgeStyle;rounded=0;orthogonalLoop=1;jettySize=auto;html=1;entryX=0.011;entryY=0.593;entryDx=0;entryDy=0;entryPerimeter=0;" edge="1" parent="1" source="fl3CMTGi6qAs-wpmnRKZ-14" target="fl3CMTGi6qAs-wpmnRKZ-18">
          <mxGeometry relative="1" as="geometry" />
        </mxCell>
        <mxCell id="fl3CMTGi6qAs-wpmnRKZ-14" value="Promtail" style="rounded=1;whiteSpace=wrap;html=1;fillColor=#f0a30a;strokeColor=#BD7000;fontColor=#000000;" vertex="1" parent="1">
          <mxGeometry x="-785" y="219" width="70" height="20" as="geometry" />
        </mxCell>
        <mxCell id="fl3CMTGi6qAs-wpmnRKZ-24" style="edgeStyle=orthogonalEdgeStyle;rounded=0;orthogonalLoop=1;jettySize=auto;html=1;entryX=0.5;entryY=1;entryDx=0;entryDy=0;" edge="1" parent="1" source="fl3CMTGi6qAs-wpmnRKZ-15" target="fl3CMTGi6qAs-wpmnRKZ-13">
          <mxGeometry relative="1" as="geometry">
            <Array as="points">
              <mxPoint x="-595" y="413" />
            </Array>
          </mxGeometry>
        </mxCell>
        <mxCell id="fl3CMTGi6qAs-wpmnRKZ-15" value="Promtail" style="rounded=1;whiteSpace=wrap;html=1;fillColor=#f0a30a;strokeColor=#BD7000;fontColor=#000000;" vertex="1" parent="1">
          <mxGeometry x="-785" y="402.5" width="70" height="20" as="geometry" />
        </mxCell>
        <mxCell id="fl3CMTGi6qAs-wpmnRKZ-31" style="edgeStyle=orthogonalEdgeStyle;rounded=0;orthogonalLoop=1;jettySize=auto;html=1;" edge="1" parent="1" source="fl3CMTGi6qAs-wpmnRKZ-18" target="fl3CMTGi6qAs-wpmnRKZ-21">
          <mxGeometry relative="1" as="geometry" />
        </mxCell>
        <mxCell id="fl3CMTGi6qAs-wpmnRKZ-18" value="&lt;font style=&quot;font-size: 14px;&quot;&gt;&lt;b&gt;Grafana Loki&lt;/b&gt;&lt;/font&gt;" style="rounded=0;whiteSpace=wrap;html=1;fillColor=#fad7ac;strokeColor=#b46504;" vertex="1" parent="1">
          <mxGeometry x="-570" y="219" width="90" height="72.5" as="geometry" />
        </mxCell>
        <mxCell id="fl3CMTGi6qAs-wpmnRKZ-30" style="edgeStyle=orthogonalEdgeStyle;rounded=0;orthogonalLoop=1;jettySize=auto;html=1;entryX=0.001;entryY=0.592;entryDx=0;entryDy=0;entryPerimeter=0;" edge="1" parent="1" source="fl3CMTGi6qAs-wpmnRKZ-20" target="fl3CMTGi6qAs-wpmnRKZ-18">
          <mxGeometry relative="1" as="geometry" />
        </mxCell>
        <mxCell id="fl3CMTGi6qAs-wpmnRKZ-20" value="Promtail" style="rounded=1;whiteSpace=wrap;html=1;fillColor=#f0a30a;strokeColor=#BD7000;fontColor=#000000;" vertex="1" parent="1">
          <mxGeometry x="-785" y="310" width="70" height="20" as="geometry" />
        </mxCell>
        <mxCell id="fl3CMTGi6qAs-wpmnRKZ-21" value="&lt;b&gt;Grafana&lt;/b&gt;" style="rounded=0;whiteSpace=wrap;html=1;fillColor=#ffcd28;strokeColor=#d79b00;gradientColor=#ffa500;" vertex="1" parent="1">
          <mxGeometry x="-410" y="219" width="90" height="72.5" as="geometry" />
        </mxCell>
      </root>
    </mxGraphModel>
  </diagram>
</mxfile>
